<?xml version="1.0" encoding="utf-8"?>
<!-- Generator: Adobe Illustrator 23.0.3, SVG Export Plug-In . SVG Version: 6.00 Build 0)  -->
<svg version="1.1"
	 id="svg5327" xmlns:cc="http://creativecommons.org/ns#" xmlns:dc="http://purl.org/dc/elements/1.1/" xmlns:inkscape="http://www.inkscape.org/namespaces/inkscape" xmlns:rdf="http://www.w3.org/1999/02/22-rdf-syntax-ns#" xmlns:sodipodi="http://sodipodi.sourceforge.net/DTD/sodipodi-0.dtd" xmlns:svg="http://www.w3.org/2000/svg"
	 xmlns="http://www.w3.org/2000/svg" xmlns:xlink="http://www.w3.org/1999/xlink" x="0px" y="0px" viewBox="0 0 1210.2 45"
	 style="enable-background:new 0 0 1210.2 45;" xml:space="preserve">
<style type="text/css">
	.st0{fill:#0B1026;}
	.st1{opacity:0.5;}
	.st2{fill:#0B1026;fill-opacity:0;}
	.st3{fill:#E52629;}
</style>
<sodipodi:namedview  bordercolor="#666666" borderopacity="1.0" fit-margin-bottom="0" fit-margin-left="0" fit-margin-right="0" fit-margin-top="0" id="base" inkscape:current-layer="layer1" inkscape:cx="309.06303" inkscape:cy="10.10151" inkscape:document-units="px" inkscape:guide-bbox="true" inkscape:pageopacity="0" inkscape:pageshadow="2" inkscape:snap-bbox="true" inkscape:snap-nodes="false" inkscape:window-height="1032" inkscape:window-maximized="0" inkscape:window-width="1916" inkscape:window-x="0" inkscape:window-y="22" inkscape:zoom="2" pagecolor="#ffffff" showgrid="false" showguides="true">
	<inkscape:grid  empspacing="5" enabled="true" id="grid5368" snapvisiblegridlinesonly="true" type="xygrid" visible="true">
		</inkscape:grid>
	<sodipodi:guide  id="guide7926" orientation="0,1" position="206,16"></sodipodi:guide>
	<sodipodi:guide  id="guide7928" orientation="0,1" position="202,4"></sodipodi:guide>
	<sodipodi:guide  id="guide3009" orientation="1,0" position="280,48"></sodipodi:guide>
	<sodipodi:guide  id="guide3011" orientation="1,0" position="300,43"></sodipodi:guide>
</sodipodi:namedview>
<g id="layer1_1_" transform="translate(-3200,-992.36218)" inkscape:groupmode="layer" inkscape:label="Layer 1">
	<path id="path6002-6-5-5_1_" inkscape:connector-curvature="0" sodipodi:nodetypes="cccccccc" class="st0" d="M3241.4,1011.9
		l-18.6-18.6l-18.6,18.6h15.3v23.6h6.8v-23.6H3241.4z"/>
	<path id="rect4998_1_" inkscape:connector-curvature="0" class="st0" d="M3490.2,995c-5.7,0-10.5,2-13.1,5.4
		c-2.7,3.5-3.7,7.4-3.7,11.6v20.3h6.8V1012c0-2.7,0.7-5.4,2.4-7.2c1.3-1.7,3.7-3.1,7.8-3.1s6.4,1.3,7.8,3.1c1.3,1.7,2.4,4.4,2.4,7.2
		v6.8h-15.3l18.6,18.6l18.6-18.6h-15.3v-6.8c0-4.1-1.1-8.1-3.7-11.6C3500.8,997,3496,995,3490.2,995z"/>
	<path id="path4705_1_" inkscape:connector-curvature="0" sodipodi:nodetypes="cccccccccc" class="st0" d="M3414.1,995l10.2,10.1
		l-11.8,11.8v18.3h6.8v-15.5l9.8-10.2l10.5,10.5v-25.4L3414.1,995L3414.1,995z"/>
	<path id="path4878_1_" inkscape:connector-curvature="0" sodipodi:nodetypes="ccccccccccc" class="st0" d="M3361.7,993.3v15.3h-17
		l-3.5,3.5v20.3h6.8v-17h13.5v15.3l18.6-18.6L3361.7,993.3z"/>
	<path id="path4886_1_" inkscape:connector-curvature="0" class="st0" d="M3278.3,995l-4.8,3.3v27.1h6.8v-19l15.5,15.3l-10.5,10.5
		h25.4v-25.4l-10.2,10.2L3278.3,995L3278.3,995z"/>
	<path id="path4941_1_" inkscape:connector-curvature="0" sodipodi:nodetypes="cccccccccc" class="st0" d="M3683.2,995v25.4
		l10.5-10.5l9.8,10.2v15.5h6.8v-18.3l-11.8-11.8l10.2-10.2L3683.2,995L3683.2,995z"/>
	<path id="path4945_1_" inkscape:connector-curvature="0" sodipodi:nodetypes="ccccccccccc" class="st0" d="M3625.6,993.3v15.3h17
		l3.5,3.5v20.3h-6.8v-17h-13.5v15.3l-18.6-18.6L3625.6,993.3z"/>
	<path id="path4947_1_" inkscape:connector-curvature="0" class="st0" d="M3573.6,995l-22,22l-10.1-10.2v25.4h25.4l-10.5-10.5
		l15.5-15.3v19h6.8v-27.1L3573.6,995L3573.6,995z"/>
	<path id="path5026_1_" inkscape:connector-curvature="0" sodipodi:nodetypes="scccsccscccccss" class="st0" d="M3832.2,991.5
		c-5,0-10.5,2-14.2,5.7c-7.8,7.8-7.8,21,0,28.8l4.8-4.8c-5.4-5.4-5.4-13.9,0-19c5.4-5.4,13.9-5.4,19,0c5.4,5.4,5.4,13.9,0,19
		c-2.7,2.7-6.1,4.1-9.4,4.1h-3.5v13.5h6.8v-7.2c4.1-0.7,8.1-2.7,10.9-5.7c7.8-7.8,7.8-21,0-28.8
		C3842.7,993.3,3837.3,991.5,3832.2,991.5z"/>
	<g id="g5936_1_" transform="matrix(1,0,0,-1,1,2004.7244)" class="st1">
	</g>
	<g id="g5932_1_" transform="translate(1,-2)">
	</g>
	<g id="g6038_1_" transform="matrix(1,0,0,-1,1,2024.7244)">
	</g>
	
		<g id="a-18_1_" transform="translate(3360.5,-23.000003)" inkscape:export-xdpi="90" inkscape:export-ydpi="90" inkscape:label="#g6597">
		<rect id="rect6083_1_" x="371.9" y="1007.8" class="st2" width="60.9" height="60.9"/>
	</g>
	
		<g id="b-18_1_" transform="translate(3401,-23.00002)" inkscape:export-xdpi="90" inkscape:export-ydpi="90" inkscape:label="#g6602">
		<rect id="rect6604_1_" x="468.5" y="1007.8" class="st2" width="60.9" height="60.9"/>
		<rect x="478.4" y="1017.6" class="st3" width="40.4" height="40.7"/>
	</g>
	<rect id="rect3033_1_" x="3937.3" y="984.8" class="st2" width="60.9" height="60.9"/>
	<g>
		<polygon class="st0" points="3966,1025.3 3971.6,1025.3 3971.6,1023.8 3984.1,1023.8 3968.7,1008.5 3953.4,1023.8 3966,1023.8 		
			"/>
		<rect x="3966" y="1031.7" class="st0" width="5.5" height="4.5"/>
		<rect x="3966" y="1027.6" class="st0" width="5.5" height="1.7"/>
	</g>
	<circle class="st0" cx="3968.7" cy="1000.3" r="6.3"/>
</g>
<polygon class="st0" points="834,26.7 823.5,16.4 812.1,27.9 812.1,2.5 836.1,2.8 827.4,13 838.9,24.5 839.4,24.5 850.9,13 
	840.7,2.9 866.2,2.5 866.2,27.9 854.9,16.3 846,25.5 845.1,26.5 845,26.5 842.9,28.5 842.9,43.8 836.1,43.8 836.1,28.5 "/>
<path id="path6002-6-5-5_4_" inkscape:connector-curvature="0" sodipodi:nodetypes="cccccccc" class="st0" d="M917.7,14.9L903.3,0
	l-14.6,14.9H900v28.6h6.8V14.9H917.7z"/>
<path id="path4705_7_" inkscape:connector-curvature="0" sodipodi:nodetypes="cccccccccc" class="st0" d="M919.2,27.5l7,7v-17h-17.1
	l0,0l6.9,7L919.2,27.5z"/>
<path id="path4705_8_" inkscape:connector-curvature="0" sodipodi:nodetypes="cccccccccc" class="st0" d="M905.3,43.2l15.9-18.3
	l-4.8-4.4l-15.3,17"/>
<g>
	<path id="path6002-6-5-5_5_" inkscape:connector-curvature="0" sodipodi:nodetypes="cccccccc" class="st0" d="M971.7,14.9v28.6h6.8
		V14.9h11.3L975.2,0l-14.4,14.9H971.7z"/>
	<path id="path4705_9_" inkscape:connector-curvature="0" sodipodi:nodetypes="cccccccccc" class="st0" d="M962.4,24.5l6.9-7l0,0
		h-17.1v17l7-7L962.4,24.5z"/>
	<path id="path4705_6_" inkscape:connector-curvature="0" sodipodi:nodetypes="cccccccccc" class="st0" d="M977.3,37.5l-15.3-17
		l-4.8,4.4l15.9,18.3"/>
</g>
<path id="path6002-6-5-5_9_" inkscape:connector-curvature="0" sodipodi:nodetypes="cccccccc" class="st0" d="M1053.3,18.6L1034.7,0
	l-18.6,18.6h15.3v24.9h6.8V18.6H1053.3z"/>
<path id="path6002-6-5-5_13_" inkscape:connector-curvature="0" sodipodi:nodetypes="cccccccc" class="st0" d="M1168.3,11.5v32h6.8
	v-32"/>
<path id="path6002-6-5-5_8_" inkscape:connector-curvature="0" sodipodi:nodetypes="cccccccc" class="st0" d="M1035.2,30.6l9.9,9.9
	l4.8-4.8l-12.1-12.1L1035.2,30.6z"/>
<path id="path6002-6-5-5_11_" inkscape:connector-curvature="0" sodipodi:nodetypes="cccccccc" class="st0" d="M1105.3,18.6v24.9
	h6.8V18.6h15.3L1108.8,0l-18.6,18.6H1105.3z"/>
<path id="path6002-6-5-5_10_" inkscape:connector-curvature="0" sodipodi:nodetypes="cccccccc" class="st0" d="M1105.7,23.6
	l-12.1,12.1l4.8,4.8l9.9-9.9L1105.7,23.6z"/>
<path id="path6002-6-5-5_12_" inkscape:connector-curvature="0" sodipodi:nodetypes="cccccccc" class="st0" d="M1149.2,12.5h45V5.7
	h-45V12.5z"/>
<polygon class="st3" points="583.1,22.8 547.9,2.5 547.9,43.1 "/>
</svg>
